# xmcd
#
# Track frame offsets:
#	150
#	16818
#	31574
#	48128
#	62061
#	75969
#	90655
#	105480
#	120914
#	137061
#	152327
#	166478
#
# Disc length: 2399 seconds
#
# Revision: 0
# Processed by: cddbd v1.5.2PL0 Copyright (c) Steve Scherf et al.
# Submitted via: EasyCDDAExtractor 16.0.6.1
#
DISCID=76095d0c
DTITLE=Συλλογικός δίσκος - Μεγάλες επιτυχίες-Τσιτσάνης Βασίλης
DYEAR=1997
DGENRE=Λαϊκή
TTITLE0=Νίνου Μαρίκα-Τσιτσάνης Βασίλης - Συννεφιασμένη Κυριακή [Βασίλης Τσιτσά
TTITLE0=νης]
TTITLE1=Λίντα Μαίρη - Φτωχό κορμί [Βασίλης Τσιτσάνης]
TTITLE2=Λίντα Μαίρη-Τσιτσάνης Βασίλης - Είμαστε ζευγάρι φίνο [Βασίλης Τσιτσάνη
TTITLE2=ς]
TTITLE3=Πάνου Πόλυ - Φελλάχες γλυκές [Βασίλης Τσιτσάνης]
TTITLE4=Νίνου Μαρίκα-Τσιτσάνης Βασίλης - Καράβια στο γυαλό [Βασίλης Τσιτσάνης]
TTITLE5=Πάνου Πόλυ - Μάμπο με πεννιές [Βασίλης Τσιτσάνης]
TTITLE6=Τσιτσάνης Βασίλης-Νίνου Μαρίκα - Καθάρισε τη θέση σου [Βασίλης Τσιτσάν
TTITLE6=ης]
TTITLE7=Λίντα Μαίρη-Τσιτσάνης Βασίλης - Για να σε κάνω άνθρωπο [Βασίλης Τσιτσά
TTITLE7=νης]
TTITLE8=Τσιτσάνης Βασίλης-Νίνου Μαρίκα - Χασαποσέρβικο [Βασίλης Τσιτσάνης]
TTITLE9=Τσιτσάνης Βασίλης-Νίνου Μαρίκα - Σία και αράξαμε [Βασίλης Τσιτσάνης]
TTITLE10=Μιχαλόπουλος Πάνος - Αγαπώ μιά παντρεμένη [Βασίλης Τσιτσάνης]
TTITLE11=Τσιτσάνης Βασίλης - Χαμπίμπα [Βασίλης Τσιτσάνης]
EXTD=
EXTT0=
EXTT1=
EXTT2=
EXTT3=
EXTT4=
EXTT5=
EXTT6=
EXTT7=
EXTT8=
EXTT9=
EXTT10=
EXTT11=
PLAYORDER=
